<?xml version="1.0" encoding="iso-8859-1"?>
<!-- Generator: Adobe Illustrator 19.0.0, SVG Export Plug-In . SVG Version: 6.00 Build 0)  -->
<svg version="1.1" id="Layer_1" xmlns="http://www.w3.org/2000/svg" xmlns:xlink="http://www.w3.org/1999/xlink" x="0px" y="0px"
	 viewBox="0 0 512 512" style="enable-background:new 0 0 512 512;" xml:space="preserve">
<g>
	<g>
		<path d="M256,0C149.164,0,62.247,86.918,62.247,193.753c0,42.044,13.232,82.028,38.276,115.64L249.455,508.72
			c1.543,2.064,3.969,3.28,6.545,3.28c2.576,0,5.002-1.216,6.545-3.28l148.939-199.336c25.036-33.602,38.269-73.587,38.269-115.631
			C449.753,86.918,362.836,0,256,0z M398.387,299.613L256,490.18L113.619,299.621c-22.918-30.76-35.032-67.368-35.032-105.869
			C78.588,95.928,158.174,16.34,256,16.34s177.412,79.588,177.412,177.412C433.412,232.253,421.299,268.861,398.387,299.613z"/>
	</g>
</g>
<g>
	<g>
		<path d="M250.553,90.816c-4.512,0-8.17,3.658-8.17,8.17v44.119h-16.34V98.986c0-4.512-3.658-8.17-8.17-8.17
			c-4.512,0-8.17,3.658-8.17,8.17v44.119h-16.34V98.986c0-4.512-3.658-8.17-8.17-8.17c-4.512,0-8.17,3.658-8.17,8.17v65.362
			c0,19.728,14.057,36.233,32.681,40.029v84.148c0,4.512,3.658,8.17,8.17,8.17c4.512,0,8.17-3.658,8.17-8.17v-84.148
			c18.624-3.795,32.681-20.3,32.681-40.029V98.986C258.723,94.474,255.065,90.816,250.553,90.816z M242.383,164.348
			c0,13.516-10.995,24.511-24.511,24.511c-13.516,0-24.511-10.995-24.511-24.511v-4.902h49.021V164.348z"/>
	</g>
</g>
<g>
	<g>
		<path d="M305.021,90.816c-16.519,0-29.957,13.438-29.957,29.957v83.881c0,16.519,13.438,29.957,29.957,29.957h13.617v53.914
			c0,4.512,3.658,8.17,8.17,8.17s8.17-3.658,8.17-8.17V120.773C334.979,104.254,321.54,90.816,305.021,90.816z M318.638,218.271
			h-13.617c-7.509,0-13.617-6.108-13.617-13.617v-83.881c0-7.509,6.108-13.617,13.617-13.617s13.617,6.108,13.617,13.617V218.271z"
			/>
	</g>
</g>
<g>
	<g>
		<path d="M256,33.072c-88.6,0-160.681,72.081-160.681,160.681c0,36.569,12.625,72.364,35.549,100.791
			c2.833,3.513,7.976,4.064,11.488,1.231c3.512-2.833,4.063-7.976,1.231-11.488c-20.889-25.902-31.929-57.208-31.929-90.534
			c0-79.59,64.751-144.34,144.34-144.34s144.34,64.751,144.34,144.34s-64.751,144.34-144.34,144.34
			c-33.327,0-64.632-11.041-90.533-31.929c-3.512-2.833-8.656-2.282-11.488,1.231c-2.833,3.512-2.282,8.656,1.231,11.488
			c28.426,22.924,64.221,35.55,100.79,35.55c88.6,0,160.681-72.081,160.681-160.681S344.6,33.072,256,33.072z"/>
	</g>
</g>
<g>
</g>
<g>
</g>
<g>
</g>
<g>
</g>
<g>
</g>
<g>
</g>
<g>
</g>
<g>
</g>
<g>
</g>
<g>
</g>
<g>
</g>
<g>
</g>
<g>
</g>
<g>
</g>
<g>
</g>
</svg>
