<?xml version="1.0"?>
<svg xmlns="http://www.w3.org/2000/svg" xmlns:xlink="http://www.w3.org/1999/xlink" version="1.1" id="Capa_1" x="0px" y="0px" width="512px" height="512px" viewBox="0 0 612.36 612.36" style="enable-background:new 0 0 612.36 612.36;" xml:space="preserve" class=""><g><g>
	<g>
		<g>
			<path d="M439.11,239.188c2.053,4.844-0.199,10.466-5.044,12.519c-4.844,2.053-10.466-0.199-12.519-5.043     c-2.632-6.18-5.882-12.14-9.648-17.722c-3.808-5.642-8.153-10.884-12.878-15.629l-0.021,0.02     c-4.805-4.804-10.048-9.15-15.63-12.898c-5.62-3.808-11.542-7.057-17.643-9.648c-4.844-2.033-7.116-7.635-5.083-12.479     c2.033-4.844,7.635-7.117,12.479-5.083c7.454,3.17,14.491,6.997,20.95,11.363c6.698,4.505,12.898,9.628,18.479,15.21l-0.021,0.02     l0.021,0.02c5.642,5.641,10.765,11.841,15.189,18.419C432.133,224.775,435.96,231.792,439.11,239.188z" data-original="#000000" class="active-path" data-old_color="#bf1e2e" fill="#bf1e2e"/>
			<path d="M499.892,240.464c1.354,5.104-1.675,10.346-6.778,11.702c-5.103,1.356-10.346-1.674-11.701-6.778     c-3.688-13.655-9.17-26.732-16.207-38.873c-7.036-12.14-15.748-23.443-25.836-33.55c-10.105-10.107-21.409-18.818-33.55-25.855     c-12.121-7.037-25.198-12.519-38.873-16.187c-5.104-1.355-8.134-6.599-6.777-11.702c1.354-5.104,6.599-8.133,11.701-6.778     c15.271,4.126,29.902,10.267,43.498,18.141c13.716,7.954,26.354,17.662,37.537,28.846c11.184,11.184,20.893,23.822,28.825,37.537     C489.625,210.562,495.765,225.194,499.892,240.464z" data-original="#000000" class="active-path" data-old_color="#bf1e2e" fill="#bf1e2e"/>
			<path d="M558.699,241.102c0.997,5.183-2.372,10.207-7.556,11.204c-5.183,0.997-10.206-2.372-11.203-7.555     c-4.206-21.171-11.542-41.504-21.669-60.383l-0.259-0.498c-10.088-18.699-22.945-36.002-38.235-51.292l-0.04-0.04     c-15.409-15.39-32.893-28.367-51.771-38.474c-18.839-10.087-39.212-17.443-60.403-21.669c-5.183-0.997-8.552-6.04-7.555-11.203     c1.017-5.183,6.04-8.552,11.203-7.555c23.005,4.565,45.133,12.599,65.726,23.603c20.593,11.044,39.591,25.138,56.275,41.803     l0.04,0.04c16.525,16.546,30.501,35.345,41.505,55.718l0.299,0.539C546.12,195.91,554.114,218.057,558.699,241.102z" data-original="#000000" class="active-path" data-old_color="#bf1e2e" fill="#bf1e2e"/>
			<path d="M608.277,500.514c4.246,3.11,5.163,9.092,2.055,13.337c-3.11,4.246-9.092,5.163-13.338,2.054L447.842,406.581     l-9.669,9.668l-15.449,15.45c-36.76,36.76-91.899,28.067-142.654-2.831c-19.037-11.582-37.478-26.294-53.963-42.78     c-16.467-16.486-31.198-34.926-42.78-53.964c-30.939-50.774-39.73-105.894-3.189-142.414l25.396-25.397L102.789,24.091     L56.4,70.141l0.02,0.02l-0.399,0.398c-36.421,36.421-45.97,84.723-27.311,143.332c19.376,60.861,68.675,132.667,149.213,213.802     l3.249,3.269l0.02-0.02c5.503,5.502,10.027,9.986,13.556,13.396c78.205,75.832,147.718,122.28,206.686,140.321     c56.794,17.383,103.681,7.974,138.866-27.231l0.479-0.458l1.137-1.137l12.279-12.678c3.668-3.77,9.729-3.849,13.496-0.181     c3.769,3.668,3.847,9.729,0.179,13.496l-12.278,12.678l-0.04,0.04l-1.177,1.178l-0.538,0.598     c-40.527,40.548-93.854,51.552-157.943,31.936c-61.897-18.938-134.042-66.921-214.46-144.887     c-5.542-5.362-10.146-9.907-13.774-13.535l0.02-0.021l-0.02-0.021l-3.27-3.289C81.678,357.82,30.844,283.404,10.531,219.652     C-10.481,153.647,0.683,98.827,42.485,57.023l0.399-0.398l0.02,0.02l0.02-0.02L97.188,2.761c0.339-0.339,0.698-0.638,1.077-0.917     c4.246-3.11,10.227-2.193,13.336,2.053L225.349,159.07c3.229,3.748,3.07,9.449-0.479,12.998l-31.198,31.198     c-29.064,29.065-20.572,75.394,5.961,118.932c10.725,17.622,24.479,34.826,40.029,50.375     c15.549,15.549,32.753,29.304,50.355,40.009c43.537,26.514,89.886,34.887,119.17,5.603l15.45-15.449l15.449-15.449l0.02,0.02     c3.271-3.269,8.532-3.768,12.38-0.956L608.277,500.514z" data-original="#000000" class="active-path" data-old_color="#bf1e2e" fill="#bf1e2e"/>
			<path d="M566.693,542.118c4.246,3.108,5.163,9.09,2.053,13.336c-3.108,4.246-9.09,5.164-13.336,2.054l-38.953-28.525     l-38.951-28.548l-38.953-28.547c-4.246-3.108-5.163-9.09-2.053-13.337c3.108-4.246,9.09-5.163,13.336-2.053l38.952,28.547     l38.952,28.546L566.693,542.118z" data-original="#000000" class="active-path" data-old_color="#bf1e2e" fill="#bf1e2e"/>
			<path d="M54.625,56.744c-3.11-4.246-2.193-10.227,2.054-13.336c4.246-3.11,10.227-2.193,13.336,2.053l28.526,38.953     l28.547,38.933l28.547,38.953c3.109,4.246,2.192,10.227-2.054,13.336c-4.246,3.109-10.227,2.193-13.336-2.053l-28.527-38.973     L83.171,95.677L54.625,56.744z" data-original="#000000" class="active-path" data-old_color="#bf1e2e" fill="#bf1e2e"/>
		</g>
	</g>
</g></g> </svg>
